<?xml version="1.0" encoding="utf-8"?>
<svg width="800px" height="587.7344px" viewBox="0 0 800 587.7344" version="1.1" xmlns:xlink="http://www.w3.org/1999/xlink" xmlns="http://www.w3.org/2000/svg">
  <path d="M688.933 0L111.067 0C49.7297 0 0 49.7297 0 111.067L0 476.667C0 538.005 49.7297 587.734 111.067 587.734L688.933 587.734C750.269 587.734 800 538.005 800 476.667L800 111.067C800 49.7297 750.269 0 688.933 0L688.933 0ZM278.384 396.555L122.853 529.242C111.883 538.605 95.3906 537.303 86.0297 526.322C76.6672 515.352 77.9687 498.859 88.9516 489.499L244.483 356.811C255.452 347.449 271.942 348.75 281.305 359.733C290.667 370.702 289.366 387.194 278.384 396.555L278.384 396.555ZM400 346.111C379.197 346.059 359.031 339.147 343.266 325.512L343.278 325.525L343.228 325.487C343.241 325.5 343.255 325.5 343.266 325.512L104.628 118.389C93.7219 108.923 92.5609 92.4328 102.012 81.5406C111.477 70.6343 127.969 69.4734 138.859 78.925L377.564 286.1C382.666 290.641 391.072 293.919 400 293.867C408.916 293.894 417.18 290.705 422.562 286.011L422.678 285.909L661.139 78.9265C672.031 69.475 688.523 70.6359 697.987 81.5422C707.437 92.4328 706.278 108.925 695.372 118.391L456.669 325.577C440.955 339.069 420.816 346.084 400 346.111L400 346.111ZM713.981 526.322C704.619 537.303 688.127 538.605 677.159 529.242L521.628 396.555C510.647 387.192 509.345 370.702 518.708 359.733C528.069 348.75 544.561 347.45 555.53 356.811L711.061 489.498C722.042 498.859 723.344 515.352 713.981 526.322L713.981 526.322Z" id="Group" fill="currentColor" fill-rule="evenodd" stroke="none" />
</svg>