<?xml version="1.0" encoding="utf-8"?>
<svg width="533.3456px" height="533.3821px" viewBox="0 0 533.3456 533.3821" version="1.1" xmlns:xlink="http://www.w3.org/1999/xlink" xmlns="http://www.w3.org/2000/svg">
  <path d="M490.667 0.0478363L45.6667 0.0478363C39.931 -0.220833 34.1983 0.644169 28.7973 2.59384C23.3963 4.5435 18.433 7.53917 14.191 11.4092C9.94933 15.2795 6.51234 19.9485 4.07734 25.1485C1.64234 30.3488 0.256668 35.9782 0 41.7145L0 487.715C0.335999 499.719 5.25533 511.142 13.7477 519.632C22.24 528.125 33.6613 533.045 45.6667 533.382L490.667 533.382C502.337 532.862 513.34 527.789 521.317 519.252C529.293 510.715 533.607 499.396 533.333 487.715L533.333 41.7145C533.43 36.1312 532.383 30.5875 530.26 25.4228C528.137 20.2585 524.98 15.5822 520.983 11.6805C516.99 7.77917 512.24 4.73518 507.027 2.73484C501.813 0.734497 496.247 -0.179832 490.667 0.0478363L490.667 0.0478363ZM166.667 444.667L89 444.667L89 207L166.667 207L166.667 444.667L166.667 444.667ZM129.704 171.053C124.285 171.242 118.884 170.308 113.843 168.31C108.801 166.312 104.227 163.293 100.409 159.442C96.5896 155.592 93.6079 150.994 91.6513 145.936C89.6943 140.878 88.8046 135.471 89.0376 130.053C88.7979 124.576 89.7056 119.11 91.7026 114.005C93.6996 108.9 96.7416 104.268 100.633 100.408C104.525 96.5475 109.181 93.5432 114.302 91.5878C119.423 89.6322 124.897 88.7688 130.371 89.0528C135.791 88.8642 141.191 89.7978 146.232 91.7958C151.274 93.7938 155.848 96.8128 159.667 100.663C163.486 104.513 166.467 109.112 168.424 114.169C170.381 119.227 171.271 124.635 171.038 130.053C171.277 135.529 170.37 140.995 168.373 146.1C166.376 151.206 163.334 155.837 159.442 159.698C155.55 163.558 150.894 166.562 145.773 168.518C140.652 170.473 135.179 171.337 129.704 171.053L129.704 171.053ZM445 444.696L367 444.696L367 314.696C367 283.696 356 262.362 328.333 262.362C319.74 262.436 311.377 265.166 304.397 270.179C297.413 275.192 292.153 282.242 289.333 290.362C287.167 296.449 286.26 302.912 286.667 309.362L286.667 444.696L210 444.696L210 207.029L286.667 207.029L286.667 240.362C293.483 227.839 303.627 217.446 315.98 210.326C328.333 203.209 342.413 199.645 356.667 200.028C407 200.028 445 233.362 445 304.362L445 444.696L445 444.696Z" id="Shape" fill="currentColor" fill-rule="evenodd" stroke="none" />
</svg>